<svg xmlns="http://www.w3.org/2000/svg" width="423" height="423" viewBox="0 0 423 423"><g><g><g><g><g><path fill="#e9eff4" d="M198.539 136a3.46 3.46 0 1 1 .002 6.92 3.46 3.46 0 0 1-.002-6.92"/></g><g><path fill="#e9eff4" d="M198.539 146a3.46 3.46 0 1 1 .003 6.919 3.46 3.46 0 0 1-.003-6.919"/></g><g><path fill="#e9eff4" d="M187.539 136a3.46 3.46 0 1 1 .002 6.92 3.46 3.46 0 0 1-.002-6.92"/></g><g><path fill="#e9eff4" d="M187.539 146a3.46 3.46 0 1 1 .003 6.919 3.46 3.46 0 0 1-.003-6.919"/></g><g><path fill="#e9eff4" d="M187.539 156a3.458 3.458 0 1 1 0 6.917 3.455 3.455 0 0 1-3.457-3.457 3.458 3.458 0 0 1 3.457-3.46"/></g><g><path fill="#e9eff4" d="M177.539 136a3.46 3.46 0 1 1 .002 6.92 3.46 3.46 0 0 1-.002-6.92"/></g><g><path fill="#e9eff4" d="M177.539 146a3.46 3.46 0 1 1 .003 6.919 3.46 3.46 0 0 1-.003-6.919"/></g><g><path fill="#e9eff4" d="M166.539 136a3.46 3.46 0 1 1 .002 6.92 3.46 3.46 0 0 1-.002-6.92"/></g><g><path fill="#e9eff4" d="M166.539 146a3.46 3.46 0 1 1 .003 6.919 3.46 3.46 0 0 1-.003-6.919"/></g><g><path fill="#e9eff4" d="M166.539 156a3.458 3.458 0 1 1 0 6.917 3.455 3.455 0 0 1-3.457-3.457 3.458 3.458 0 0 1 3.457-3.46"/></g><g><path fill="#c1dced" d="M156.539 136a3.46 3.46 0 1 1 .002 6.92 3.46 3.46 0 0 1-.002-6.92"/></g><g><path fill="#e9eff4" d="M156.539 146a3.46 3.46 0 1 1 .003 6.919 3.46 3.46 0 0 1-.003-6.919"/></g><g><path fill="#e9eff4" d="M156.539 156a3.458 3.458 0 1 1 0 6.917 3.455 3.455 0 0 1-3.457-3.457 3.458 3.458 0 0 1 3.457-3.46"/></g><g><path fill="#e9eff4" d="M145.539 156a3.458 3.458 0 1 1 0 6.917 3.455 3.455 0 0 1-3.457-3.457 3.458 3.458 0 0 1 3.457-3.46"/></g><g><path fill="#e9eff4" d="M145.539 177a3.458 3.458 0 1 1 0 6.917 3.455 3.455 0 0 1-3.457-3.457 3.458 3.458 0 0 1 3.457-3.46"/></g><g><path fill="#e9eff4" d="M135.54 177a3.46 3.46 0 1 1 .002 6.918 3.46 3.46 0 0 1-.002-6.918"/></g></g><g><g><path fill="#e9eff4" d="M36.461 77a3.46 3.46 0 1 0-.002 6.92 3.46 3.46 0 0 0 .002-6.92"/></g><g><path fill="#e9eff4" d="M36.461 87a3.46 3.46 0 1 0-.003 6.919A3.46 3.46 0 0 0 36.46 87"/></g><g><path fill="#e9eff4" d="M36.461 97a3.458 3.458 0 1 0 0 6.917 3.455 3.455 0 0 0 3.457-3.457A3.458 3.458 0 0 0 36.461 97"/></g><g><path fill="#e9eff4" d="M36.461 108a3.458 3.458 0 1 0 0 6.917 3.455 3.455 0 0 0 3.457-3.457 3.458 3.458 0 0 0-3.457-3.46"/></g><g><path fill="#e9eff4" d="M36.461 118a3.458 3.458 0 1 0 0 6.917 3.455 3.455 0 0 0 3.457-3.457 3.458 3.458 0 0 0-3.457-3.46"/></g><g><path fill="#c1dced" d="M47.461 77a3.46 3.46 0 1 0-.002 6.92 3.46 3.46 0 0 0 .002-6.92"/></g><g><path fill="#e9eff4" d="M47.461 87a3.46 3.46 0 1 0-.003 6.919A3.46 3.46 0 0 0 47.46 87"/></g><g><path fill="#e9eff4" d="M47.461 97a3.458 3.458 0 1 0 0 6.917 3.455 3.455 0 0 0 3.457-3.457A3.458 3.458 0 0 0 47.461 97"/></g><g><path fill="#e9eff4" d="M47.461 108a3.458 3.458 0 1 0 0 6.917 3.455 3.455 0 0 0 3.457-3.457 3.458 3.458 0 0 0-3.457-3.46"/></g><g><path fill="#e9eff4" d="M57.461 77a3.46 3.46 0 1 0-.002 6.92 3.46 3.46 0 0 0 .002-6.92"/></g><g><path fill="#e9eff4" d="M57.461 87a3.46 3.46 0 1 0-.003 6.919A3.46 3.46 0 0 0 57.46 87"/></g><g><path fill="#e9eff4" d="M57.461 97a3.458 3.458 0 1 0 0 6.917 3.455 3.455 0 0 0 3.457-3.457A3.458 3.458 0 0 0 57.461 97"/></g><g><path fill="#e9eff4" d="M57.461 108a3.458 3.458 0 1 0 0 6.917 3.455 3.455 0 0 0 3.457-3.457 3.458 3.458 0 0 0-3.457-3.46"/></g><g><path fill="#e9eff4" d="M57.461 118a3.458 3.458 0 1 0 0 6.917 3.455 3.455 0 0 0 3.457-3.457 3.458 3.458 0 0 0-3.457-3.46"/></g><g><path fill="#e9eff4" d="M47.461 118a3.458 3.458 0 1 0 0 6.917 3.455 3.455 0 0 0 3.457-3.457 3.458 3.458 0 0 0-3.457-3.46"/></g><g><path fill="#e9eff4" d="M68.461 87a3.46 3.46 0 1 0-.003 6.919A3.46 3.46 0 0 0 68.46 87"/></g><g><path fill="#e9eff4" d="M68.461 97a3.458 3.458 0 1 0 0 6.917 3.455 3.455 0 0 0 3.457-3.457A3.458 3.458 0 0 0 68.461 97"/></g><g><path fill="#e9eff4" d="M68.461 108a3.458 3.458 0 1 0 0 6.917 3.455 3.455 0 0 0 3.457-3.457 3.458 3.458 0 0 0-3.457-3.46"/></g><g><path fill="#e9eff4" d="M68.461 118a3.458 3.458 0 1 0 0 6.917 3.455 3.455 0 0 0 3.457-3.457 3.458 3.458 0 0 0-3.457-3.46"/></g><g><path fill="#e9eff4" d="M78.461 97a3.458 3.458 0 1 0 0 6.917 3.455 3.455 0 0 0 3.457-3.457A3.458 3.458 0 0 0 78.461 97"/></g><g><path fill="#e9eff4" d="M78.461 118a3.458 3.458 0 1 0 0 6.917 3.455 3.455 0 0 0 3.457-3.457 3.458 3.458 0 0 0-3.457-3.46"/></g><g><path fill="#e9eff4" d="M89.461 97a3.458 3.458 0 1 0 0 6.917 3.455 3.455 0 0 0 3.457-3.457A3.458 3.458 0 0 0 89.461 97"/></g><g><path fill="#e9eff4" d="M99.46 108a3.46 3.46 0 1 0-.002 6.918A3.46 3.46 0 0 0 99.46 108"/></g></g><g><g><path fill="#e9eff4" d="M36.461 128a3.46 3.46 0 1 0-.002 6.92 3.46 3.46 0 0 0 .002-6.92"/></g><g><path fill="#e9eff4" d="M36.461 138a3.46 3.46 0 1 0-.003 6.919A3.46 3.46 0 0 0 36.46 138"/></g><g><path fill="#e9eff4" d="M36.461 148a3.458 3.458 0 1 0 0 6.917 3.455 3.455 0 0 0 3.457-3.457 3.458 3.458 0 0 0-3.457-3.46"/></g><g><path fill="#e9eff4" d="M36.461 159a3.458 3.458 0 1 0 0 6.917 3.455 3.455 0 0 0 3.457-3.457 3.458 3.458 0 0 0-3.457-3.46"/></g><g><path fill="#e9eff4" d="M36.461 169a3.458 3.458 0 1 0 0 6.917 3.455 3.455 0 0 0 3.457-3.457 3.458 3.458 0 0 0-3.457-3.46"/></g><g><path fill="#e9eff4" d="M47.461 128a3.46 3.46 0 1 0-.002 6.92 3.46 3.46 0 0 0 .002-6.92"/></g><g><path fill="#e9eff4" d="M47.461 138a3.46 3.46 0 1 0-.003 6.919A3.46 3.46 0 0 0 47.46 138"/></g><g><path fill="#e9eff4" d="M47.461 148a3.458 3.458 0 1 0 0 6.917 3.455 3.455 0 0 0 3.457-3.457 3.458 3.458 0 0 0-3.457-3.46"/></g><g><path fill="#e9eff4" d="M47.461 159a3.458 3.458 0 1 0 0 6.917 3.455 3.455 0 0 0 3.457-3.457 3.458 3.458 0 0 0-3.457-3.46"/></g><g><path fill="#e9eff4" d="M47.461 169a3.458 3.458 0 1 0 0 6.917 3.455 3.455 0 0 0 3.457-3.457 3.458 3.458 0 0 0-3.457-3.46"/></g><g><path fill="#e9eff4" d="M57.461 128a3.46 3.46 0 1 0-.002 6.92 3.46 3.46 0 0 0 .002-6.92"/></g><g><path fill="#e9eff4" d="M57.461 148a3.458 3.458 0 1 0 0 6.917 3.455 3.455 0 0 0 3.457-3.457 3.458 3.458 0 0 0-3.457-3.46"/></g><g><path fill="#e9eff4" d="M57.461 159a3.458 3.458 0 1 0 0 6.917 3.455 3.455 0 0 0 3.457-3.457 3.458 3.458 0 0 0-3.457-3.46"/></g><g><path fill="#e9eff4" d="M68.461 128a3.46 3.46 0 1 0-.002 6.92 3.46 3.46 0 0 0 .002-6.92"/></g><g><path fill="#e9eff4" d="M68.461 138a3.46 3.46 0 1 0-.003 6.919A3.46 3.46 0 0 0 68.46 138"/></g><g><path fill="#e9eff4" d="M68.461 148a3.458 3.458 0 1 0 0 6.917 3.455 3.455 0 0 0 3.457-3.457 3.458 3.458 0 0 0-3.457-3.46"/></g><g><path fill="#c1dced" d="M78.461 128a3.46 3.46 0 1 0-.002 6.92 3.46 3.46 0 0 0 .002-6.92"/></g><g><path fill="#e9eff4" d="M78.461 138a3.46 3.46 0 1 0-.003 6.919A3.46 3.46 0 0 0 78.46 138"/></g><g><path fill="#e9eff4" d="M78.461 148a3.458 3.458 0 1 0 0 6.917 3.455 3.455 0 0 0 3.457-3.457 3.458 3.458 0 0 0-3.457-3.46"/></g><g><path fill="#e9eff4" d="M89.461 128a3.46 3.46 0 1 0-.002 6.92 3.46 3.46 0 0 0 .002-6.92"/></g><g><path fill="#e9eff4" d="M89.461 138a3.46 3.46 0 1 0-.003 6.919A3.46 3.46 0 0 0 89.46 138"/></g><g><path fill="#e9eff4" d="M89.461 148a3.458 3.458 0 1 0 0 6.917 3.455 3.455 0 0 0 3.457-3.457 3.458 3.458 0 0 0-3.457-3.46"/></g><g><path fill="#e9eff4" d="M99.46 128a3.46 3.46 0 1 0-.002 6.918A3.46 3.46 0 0 0 99.46 128"/></g><g><path fill="#e9eff4" d="M99.46 148a3.46 3.46 0 1 0-.002 6.918A3.46 3.46 0 0 0 99.46 148"/></g></g><g><g><path fill="#e9eff4" d="M68.461 56a3.458 3.458 0 1 0 0 6.917 3.455 3.455 0 0 0 3.457-3.457A3.458 3.458 0 0 0 68.461 56"/></g><g><path fill="#e9eff4" d="M68.461 67a3.458 3.458 0 1 0 0 6.917 3.455 3.455 0 0 0 3.457-3.457A3.458 3.458 0 0 0 68.461 67"/></g><g><path fill="#e9eff4" d="M68.461 77a3.458 3.458 0 1 0 0 6.917 3.455 3.455 0 0 0 3.457-3.457A3.458 3.458 0 0 0 68.461 77"/></g><g><path fill="#e9eff4" d="M79.461 36a3.46 3.46 0 1 0-.002 6.92 3.46 3.46 0 0 0 .002-6.92"/></g><g><path fill="#e9eff4" d="M79.461 46a3.46 3.46 0 1 0-.003 6.919A3.46 3.46 0 0 0 79.46 46"/></g><g><path fill="#e9eff4" d="M36.543 46a3.46 3.46 0 1 0-.003 6.919A3.46 3.46 0 0 0 36.543 46"/></g><g><path fill="#e9eff4" d="M79.461 56a3.458 3.458 0 1 0 0 6.917 3.455 3.455 0 0 0 3.457-3.457A3.458 3.458 0 0 0 79.461 56"/></g><g><path fill="#e9eff4" d="M36.543 56a3.458 3.458 0 1 0 0 6.917A3.455 3.455 0 0 0 40 59.46 3.458 3.458 0 0 0 36.543 56"/></g><g><path fill="#e9eff4" d="M79.461 67a3.458 3.458 0 1 0 0 6.917 3.455 3.455 0 0 0 3.457-3.457A3.458 3.458 0 0 0 79.461 67"/></g><g><path fill="#e9eff4" d="M79.461 77a3.458 3.458 0 1 0 0 6.917 3.455 3.455 0 0 0 3.457-3.457A3.458 3.458 0 0 0 79.461 77"/></g><g><path fill="#e9eff4" d="M89.461 36a3.46 3.46 0 1 0-.002 6.92 3.46 3.46 0 0 0 .002-6.92"/></g><g><path fill="#e9eff4" d="M89.461 46a3.46 3.46 0 1 0-.003 6.919A3.46 3.46 0 0 0 89.46 46"/></g><g><path fill="#e9eff4" d="M47.461 46a3.46 3.46 0 1 0-.003 6.919A3.46 3.46 0 0 0 47.46 46"/></g><g><path fill="#e9eff4" d="M89.461 56a3.458 3.458 0 1 0 0 6.917 3.455 3.455 0 0 0 3.457-3.457A3.458 3.458 0 0 0 89.461 56"/></g><g><path fill="#e9eff4" d="M89.461 67a3.458 3.458 0 1 0 0 6.917 3.455 3.455 0 0 0 3.457-3.457A3.458 3.458 0 0 0 89.461 67"/></g><g><path fill="#e9eff4" d="M89.461 77a3.458 3.458 0 1 0 0 6.917 3.455 3.455 0 0 0 3.457-3.457A3.458 3.458 0 0 0 89.461 77"/></g><g><path fill="#e9eff4" d="M100.461 36a3.46 3.46 0 1 0-.002 6.92 3.46 3.46 0 0 0 .002-6.92"/></g><g><path fill="#e9eff4" d="M100.461 46a3.46 3.46 0 1 0-.003 6.919A3.46 3.46 0 0 0 100.46 46"/></g><g><path fill="#e9eff4" d="M100.461 56a3.458 3.458 0 1 0 0 6.917 3.455 3.455 0 0 0 3.457-3.457 3.458 3.458 0 0 0-3.457-3.46"/></g><g><path fill="#e9eff4" d="M100.461 67a3.458 3.458 0 1 0 0 6.917 3.455 3.455 0 0 0 3.457-3.457 3.458 3.458 0 0 0-3.457-3.46"/></g><g><path fill="#e9eff4" d="M100.461 77a3.458 3.458 0 1 0 0 6.917 3.455 3.455 0 0 0 3.457-3.457 3.458 3.458 0 0 0-3.457-3.46"/></g><g><path fill="#e9eff4" d="M110.461 56a3.458 3.458 0 1 0 0 6.917 3.455 3.455 0 0 0 3.457-3.457 3.458 3.458 0 0 0-3.457-3.46"/></g><g><path fill="#e9eff4" d="M110.461 67a3.458 3.458 0 1 0 0 6.917 3.455 3.455 0 0 0 3.457-3.457 3.458 3.458 0 0 0-3.457-3.46"/></g><g><path fill="#e9eff4" d="M121.461 56a3.458 3.458 0 1 0 0 6.917 3.455 3.455 0 0 0 3.457-3.457 3.458 3.458 0 0 0-3.457-3.46"/></g><g><path fill="#e9eff4" d="M192.461 101a3.46 3.46 0 1 0-.003 6.919 3.46 3.46 0 0 0 .003-6.919"/></g><g><path fill="#e9eff4" d="M192.461 111a3.458 3.458 0 1 0 0 6.917 3.455 3.455 0 0 0 3.457-3.457 3.458 3.458 0 0 0-3.457-3.46"/></g><g><path fill="#e9eff4" d="M203.461 101a3.46 3.46 0 1 0-.003 6.919 3.46 3.46 0 0 0 .003-6.919"/></g><g><path fill="#e9eff4" d="M214.461 101a3.46 3.46 0 1 0-.003 6.919 3.46 3.46 0 0 0 .003-6.919"/></g><g><path fill="#e9eff4" d="M203.461 111a3.458 3.458 0 1 0 0 6.917 3.455 3.455 0 0 0 3.457-3.457 3.458 3.458 0 0 0-3.457-3.46"/></g></g></g><g><g><path fill="none" stroke="#e1e1e1" stroke-miterlimit="50" d="M109 211.5c0-56.61 45.89-102.5 102.5-102.5S314 154.89 314 211.5 268.11 314 211.5 314 109 268.11 109 211.5z"/></g><g><path fill="none" stroke="#e1e1e1" stroke-miterlimit="50" d="M132 212c0-43.63 35.37-79 79-79s79 35.37 79 79-35.37 79-79 79-79-35.37-79-79z"/></g><g><path fill="none" stroke="#e1e1e1" stroke-miterlimit="50" d="M55 212c0-86.709 70.291-157 157-157s157 70.291 157 157-70.291 157-157 157S55 298.709 55 212z"/></g><g><path fill="none" stroke="#e1e1e1" stroke-miterlimit="50" d="M1 211.5C1 95.244 95.244 1 211.5 1S422 95.244 422 211.5 327.756 422 211.5 422 1 327.756 1 211.5z"/></g></g></g></g></svg>