<svg xmlns="http://www.w3.org/2000/svg" width="86" height="17" viewBox="0 0 86 17"><g><g><g><path fill="#adafb2" d="M2.182 16.802c.876 0 1.607-.73 1.607-1.607V1.705c0-.877-.73-1.608-1.607-1.608S.575.827.575 1.705v13.49c0 .876.73 1.607 1.607 1.607z"/></g><g/></g><g><g><path fill="#adafb2" d="M8.22 14.172c.877 0 1.608-.73 1.608-1.607v-8.28c0-.876-.73-1.606-1.607-1.606s-1.607.73-1.607 1.607v8.279c0 .877.73 1.607 1.607 1.607z"/></g><g/></g><g><g><path fill="#c1d82f" d="M2.182 16.9c.584 0 1.071-.342 1.363-.829L9.633 5.016c.195-.39.244-.828.146-1.217-.146-.39-.39-.73-.779-.974-.244-.146-.536-.195-.828-.195-.584 0-1.071.34-1.364.828L.721 14.513c-.439.78-.146 1.753.633 2.192.292.097.536.194.828.194z"/></g><g/></g><g><g><g><path fill="#003d79" d="M58.919 4.14h-3.02v10.909c0 .195-.146.39-.39.39h-2.434a.384.384 0 0 1-.39-.39V4.139h-3.068c-.195 0-.39-.145-.39-.34V1.85c0-.195.146-.341.39-.341h9.302c.195 0 .39.146.39.34V3.8c0 .195-.195.34-.39.34z"/></g><g/></g><g><g><path fill="#003d79" d="M82.977 15.39h-2.97c-.244 0-.341-.098-.488-.293l-2.435-3.944L74.893 15c-.146.243-.244.39-.487.39H71.63c-.195 0-.292-.098-.292-.244 0-.049 0-.097.048-.146l3.896-6.77-3.944-6.428c0-.049-.049-.097-.049-.097 0-.147.146-.244.292-.244h3.02c.194 0 .34.195.487.34l2.337 3.8 2.094-3.8c.098-.145.244-.34.487-.34h2.776c.147 0 .293.097.293.244 0 .048 0 .097-.049.097l-3.847 6.623L83.22 15a.368.368 0 0 1 .048.195c-.048.146-.146.195-.292.195z"/></g><g/></g><g><g><path fill="#003d79" d="M40.753 4.042h1.802c1.73 0 2.094.9 2.094 1.656v.243h.049c0 .994-.165 1.753-2.24 1.753h-1.705V4.042zm7.695 11.104c-.076-.037-.093-.077-.12-.137a1.175 1.175 0 0 0-.026-.058l-2.825-5.26a3.793 3.793 0 0 0 1.73-1.327c.468-.663.705-1.479.705-2.423v-.243c0-1.487-.483-2.617-1.436-3.36-.98-.763-2.145-.877-2.752-.877h-5.747a.386.386 0 0 0-.39.39V15c0 .191.146.39.39.39h2.436a.385.385 0 0 0 .389-.39v-4.773h1.558L44.893 15l.04.084c.076.164.141.305.35.305h2.872c.186 0 .293-.088.293-.243z"/></g><g/></g><g><g><path fill="#003d79" d="M35.055 3.994c.195 0 .39-.147.39-.39V1.85c0-.244-.098-.341-.39-.39h-7.792a.384.384 0 0 0-.39.39V15c0 .195.146.39.39.39h7.841c.243-.05.39-.146.39-.39v-1.753a.384.384 0 0 0-.39-.39h-4.627a.384.384 0 0 1-.39-.39V9.546h4.87c.196 0 .39-.146.39-.39V7.355a.384.384 0 0 0-.39-.39H30.04V4.335c0-.195.146-.39.39-.39h4.626z"/></g><g/></g><g><g><path fill="#003d79" d="M69.195 3.994c.195 0 .39-.147.39-.39V1.85c0-.244-.098-.341-.39-.39H61.402a.384.384 0 0 0-.389.39V15c0 .195.146.39.39.39H69.244c.243-.05.39-.146.39-.39v-1.753a.384.384 0 0 0-.39-.39h-4.627a.384.384 0 0 1-.39-.39V9.546h4.87c.195 0 .39-.146.39-.39V7.355a.384.384 0 0 0-.39-.39h-4.87V4.335c0-.195.146-.39.39-.39h4.578z"/></g><g/></g><g><g><path fill="#003d79" d="M25.364 1.802c0-.195-.146-.292-.341-.292h-2.63a.333.333 0 0 0-.341.34l-2.338 10.812c-.048.195-.097.293-.243.293s-.244-.098-.244-.293L16.89 1.802c-.05-.146-.195-.341-.39-.341h-2.581c-.195 0-.341.146-.341.292v.098s3.02 12.613 3.068 12.662c.049.195.292.828 1.12.828h3.361c.828 0 1.071-.585 1.12-.828.584-2.386 3.068-12.662 3.068-12.662.049 0 .049-.05.049-.05v.001z"/></g><g/></g></g><g><g><path fill="#003d79" d="M84.828 2.143c.201 0 .292.1.292.195 0 .155-.106.243-.292.243h-.341v-.438zm-.293.584h.293l.341.487.242-.001-.389-.486c.186-.061.3-.176.341-.34 0-.241-.186-.39-.486-.39h-.536v1.217l.193.001h.001zm1.315-.097c0 .649-.45 1.12-1.07 1.12-.582 0-1.073-.49-1.073-1.071 0-.65.451-1.12 1.072-1.12.611 0 1.071.46 1.071 1.071zm.147 0c0-.683-.535-1.218-1.218-1.218-.682 0-1.217.535-1.217 1.218 0 .683.535 1.218 1.217 1.218.683 0 1.218-.535 1.218-1.218z"/></g><g/></g></g></svg>